<svg width="24" height="25" viewBox="0 0 24 25" fill="none" xmlns="http://www.w3.org/2000/svg">
<path d="M12 0.20166C18.6273 0.20166 24 5.57748 24 12.2086C24 14.9756 23.0645 17.5244 21.4925 19.5546L17.4578 15.5569L18.5449 14.4697L15.3411 13.8282C14.6414 13.6881 14.0244 14.3048 14.1641 15.0046L14.8047 18.212L15.9142 17.1014L20.0045 21.1543C17.8061 23.1293 14.9546 24.2198 12 24.2155C5.37272 24.2155 0 18.8397 0 12.2086C0 5.57748 5.37272 0.20166 12 0.20166ZM12 5.11358C8.08363 5.11358 4.90909 8.28995 4.90909 12.2086C4.90909 16.071 7.99363 19.2124 11.8325 19.3014L12 19.3036V17.1205L11.8554 17.1183C10.8972 17.0901 9.96826 16.7817 9.18315 16.2314C8.39804 15.681 7.79115 14.9127 7.43737 14.0212C7.0836 13.1298 6.99842 12.1542 7.19236 11.2148C7.38629 10.2755 7.85084 9.4135 8.52869 8.73526C9.20654 8.05702 10.068 7.5922 11.0068 7.39816C11.9456 7.20411 12.9207 7.28934 13.8116 7.64332C14.7026 7.99729 15.4704 8.60453 16.0205 9.3901C16.5705 10.1757 16.8787 11.1052 16.9069 12.0639L16.9091 12.2086H19.0909L19.0887 12.041C18.9998 8.1999 15.8602 5.11358 12 5.11358ZM12 11.117C11.7107 11.117 11.4332 11.232 11.2286 11.4367C11.024 11.6414 10.9091 11.9191 10.9091 12.2086C10.9091 12.4981 11.024 12.7757 11.2286 12.9804C11.4332 13.1851 11.7107 13.3001 12 13.3001C12.2893 13.3001 12.5668 13.1851 12.7714 12.9804C12.976 12.7757 13.0909 12.4981 13.0909 12.2086C13.0909 11.9191 12.976 11.6414 12.7714 11.4367C12.5668 11.232 12.2893 11.117 12 11.117Z" fill="white"/>
</svg>
