<svg xmlns="http://www.w3.org/2000/svg" width="20" height="20" viewBox="0 0 20 20" fill="none">
    <path
        d="M9.0625 15.3193C9.0625 15.8371 9.48224 16.2569 10 16.2569C10.5178 16.2569 10.9375 15.8371 10.9375 15.3193C10.9375 14.8016 10.5178 14.3818 10 14.3818C9.48224 14.3818 9.0625 14.8016 9.0625 15.3193Z"
        fill="#FFAC03" />
    <path
        d="M10 18.75C5.17501 18.75 1.25 14.825 1.25 10C1.25 5.17501 5.17501 1.25 10 1.25C14.825 1.25 18.75 5.17501 18.75 10C18.75 14.825 14.825 18.75 10 18.75ZM10 2.50561C5.86749 2.50561 2.50561 5.86749 2.50561 10C2.50561 14.1319 5.86749 17.4944 10 17.4944C14.1319 17.4944 17.4944 14.1319 17.4944 10C17.4944 5.86749 14.1319 2.50561 10 2.50561Z"
        fill="#FFAC03" />
    <path
        d="M10 13.1584C9.655 13.1584 9.375 12.8784 9.375 12.5334V11.4766C9.375 10.454 10.1562 9.6728 10.8462 8.98344C11.3519 8.47719 11.875 7.95468 11.875 7.5378C11.875 6.49594 11.0337 5.64844 10 5.64844C8.94878 5.64844 8.12503 6.45969 8.12503 7.4953C8.12503 7.84031 7.84503 8.12028 7.50002 8.12028C7.155 8.12028 6.875 7.84028 6.875 7.4953C6.875 5.7878 8.27686 4.39844 10 4.39844C11.7232 4.39844 13.125 5.80655 13.125 7.5378C13.125 8.47343 12.4157 9.18217 11.73 9.8678C11.1863 10.4103 10.625 10.9715 10.625 11.4759V12.5328C10.625 12.8778 10.345 13.1584 10 13.1584Z"
        fill="#FFAC03" />
</svg>