<svg width="24" height="24" viewBox="0 0 24 24" fill="none" xmlns="http://www.w3.org/2000/svg">
<path d="M12.0007 6.69839C12.9233 6.69819 13.8307 6.93811 14.6381 7.39565C15.4455 7.8532 16.1264 8.5134 16.6169 9.3144C17.1075 10.1154 17.3917 11.031 17.4429 11.9753C17.4941 12.9197 17.3107 13.8619 16.9097 14.7137C16.5504 15.4735 16.0264 16.1397 15.3797 16.6615L12.8945 13.0269C12.7941 12.8793 12.6604 12.7588 12.5048 12.6756C12.3492 12.5924 12.1762 12.5489 12.0007 12.5489C11.8252 12.5489 11.6523 12.5924 11.4967 12.6756C11.3411 12.7588 11.2074 12.8793 11.107 13.0269L8.62179 16.6615C7.97465 16.14 7.45149 15.4745 7.09178 14.7154C6.73208 13.9563 6.54522 13.1233 6.54532 12.2794C6.5461 11.5456 6.68784 10.8193 6.96242 10.1417C7.23701 9.46418 7.63907 8.84871 8.14566 8.33047C8.65224 7.81223 9.25342 7.40136 9.91488 7.12133C10.5763 6.8413 11.2851 6.69758 12.0007 6.69839ZM12.0007 0C18.6269 0 24 5.49808 24 12.2794C24.0011 14.2009 23.5614 16.0959 22.7165 17.8111C21.8715 19.5264 20.645 21.0139 19.1359 22.1535L17.2586 19.406C18.3357 18.5748 19.2098 17.4984 19.8118 16.2616C20.4137 15.0248 20.7272 13.6616 20.7273 12.2794C20.7262 11.1054 20.4995 9.94321 20.0602 8.8591C19.6209 7.77499 18.9777 6.7902 18.1672 5.96096C17.3567 5.13172 16.3949 4.47426 15.3366 4.02614C14.2783 3.57801 13.1443 3.34798 11.9993 3.34919C9.68758 3.34797 7.47005 4.28799 5.83418 5.96259C4.19832 7.63719 3.27803 9.90928 3.27565 12.2794C3.27565 15.1911 4.63801 17.7774 6.74443 19.4075L4.86707 22.1519C3.35766 21.0128 2.13068 19.5257 1.28522 17.8107C0.439751 16.0957 -0.000504304 14.2009 4.33509e-07 12.2794C4.33509e-07 5.49808 5.37459 0 12.0007 0ZM11.5471 16.3254C11.5969 16.2488 11.6643 16.1859 11.7435 16.1425C11.8226 16.099 11.911 16.0763 12.0007 16.0763C12.0905 16.0763 12.1789 16.099 12.258 16.1425C12.3372 16.1859 12.4046 16.2488 12.4544 16.3254L16.3244 22.2655C16.4342 22.4336 16.4973 22.6291 16.5069 22.8311C16.5166 23.0331 16.4724 23.2341 16.3792 23.4123C16.2859 23.5906 16.1471 23.7394 15.9777 23.843C15.8082 23.9465 15.6144 24.0008 15.4171 24H8.58437C8.43698 23.9997 8.29117 23.9689 8.1557 23.9093C8.02023 23.8498 7.89791 23.7628 7.7961 23.6535C7.69428 23.5443 7.61508 23.415 7.56324 23.2736C7.51141 23.1321 7.48802 22.9813 7.49448 22.8304C7.50403 22.6281 7.56717 22.4323 7.67713 22.264L11.5471 16.3239V16.3254Z" fill="white"/>
</svg>
