<svg width="20" height="20" viewBox="0 0 20 20" fill="none" xmlns="http://www.w3.org/2000/svg">
<g clip-path="url(#clip0_81_1990)">
<path d="M9.99867 0.0162354L10.3099 0.0212354C12.9014 0.10522 15.3589 1.193 17.1634 3.05491C18.968 4.91681 19.9783 7.40711 19.9812 9.99998L19.9762 10.3112C19.8919 12.9019 18.8045 15.3585 16.9434 17.1626C15.0824 18.9668 12.5932 19.9774 10.0012 19.9812L9.68867 19.9762C7.09693 19.8932 4.63889 18.8062 2.83363 16.9447C1.02837 15.0833 0.0172071 12.5931 0.0136719 9.99998L0.0186719 9.68873C0.102354 7.09656 1.19035 4.63842 3.05282 2.83356C4.9153 1.02869 7.4064 0.0184528 9.99992 0.0162354H9.99867ZM9.54867 4.20998C9.3397 4.21829 9.14151 4.30493 8.99351 4.4527C8.84551 4.60047 8.75855 4.79853 8.74992 5.00748V10.8325C8.74992 11.14 9.13242 11.3987 9.38242 11.5412C9.45117 11.6462 9.64117 11.74 9.75742 11.8062L13.1887 13.8862C13.5874 14.1137 14.0174 13.9787 14.2474 13.5812C14.4762 13.1837 14.2624 12.6762 13.8637 12.4462L10.4137 10.45V5.00748C10.4092 4.89824 10.3832 4.79095 10.3372 4.69174C10.2912 4.59254 10.2262 4.50336 10.1457 4.4293C10.0653 4.35525 9.97106 4.29776 9.86839 4.26013C9.76573 4.2225 9.65667 4.20546 9.54742 4.20998H9.54867Z" fill="white"/>
</g>
<defs>
<clipPath id="clip0_81_1990">
<rect width="20" height="20" fill="white"/>
</clipPath>
</defs>
</svg>
