<svg width="20" height="20" viewBox="0 0 20 20" fill="none" xmlns="http://www.w3.org/2000/svg">
<g clip-path="url(#clip0_118_2986)">
<path d="M0 10C0 15.5188 4.48125 20 10 20C15.5188 20 20 15.5188 20 10C20 4.48125 15.5188 0 10 0C4.48125 0 0 4.48125 0 10Z" fill="#2775C9"/>
<path d="M9.4 6.28749V5.65937C9.4 5.32499 9.66563 5.05937 10 5.05937C10.3344 5.05937 10.6 5.32499 10.6 5.65937V6.28124C11.6875 6.44062 12.4281 7.06249 12.6281 7.94062C12.6687 8.13437 12.5563 8.32187 12.3625 8.36874C12.3344 8.37499 12.3094 8.37499 12.2812 8.37499H11.9531C11.6938 8.37499 11.4531 8.22187 11.3406 7.98749C11.1344 7.54687 10.6406 7.29374 9.9875 7.29374C9.16875 7.29374 8.62187 7.69374 8.62187 8.29374C8.62187 8.77499 8.9875 9.05312 9.875 9.26562L10.7094 9.45937C12.175 9.79374 12.7969 10.4 12.7969 11.4781C12.7969 12.6719 11.9625 13.4781 10.5969 13.6719V14.3906C10.5969 14.725 10.3312 14.9906 9.99687 14.9906C9.6625 14.9906 9.39687 14.725 9.39687 14.3906V13.6781C8.18437 13.5312 7.3625 12.8906 7.17812 11.9125C7.14375 11.7531 7.25 11.5937 7.4125 11.5656C7.43125 11.5594 7.45312 11.5594 7.47188 11.5594H7.96562C8.18437 11.5594 8.39375 11.6875 8.48438 11.8875C8.7125 12.3687 9.29063 12.6594 10.0188 12.6594C10.8906 12.6594 11.5 12.225 11.5 11.625C11.5 11.1062 11.1281 10.8062 10.2188 10.5844L9.27813 10.3656C7.94375 10.0594 7.3125 9.41874 7.3125 8.38437C7.3125 7.28124 8.15312 6.48124 9.4 6.28749ZM2.5 9.99999C2.5 6.69374 4.65937 3.88749 7.65312 2.89999C7.84062 2.84062 8.04688 2.94062 8.10625 3.12812C8.11875 3.16249 8.125 3.19999 8.125 3.24062V3.45312C8.125 3.77187 7.93125 4.06562 7.63125 4.18749C5.33125 5.12187 3.70313 7.36874 3.70313 9.99999C3.70313 12.6281 5.32187 14.8812 7.62187 15.8062C7.92188 15.925 8.12187 16.2187 8.12187 16.5469V16.7187C8.12187 16.9312 7.95 17.1 7.74063 17.1C7.7 17.1 7.65937 17.0937 7.62187 17.0812C4.64687 16.1 2.5 13.3 2.5 9.99999ZM17.5 9.99999C17.5 13.2937 15.3656 16.0875 12.4 17.0812C12.1938 17.1531 11.9656 17.0406 11.8938 16.8344C11.8813 16.7937 11.875 16.7469 11.875 16.7062V16.5656C11.875 16.2312 12.075 15.9312 12.3812 15.8062C14.675 14.8719 16.2937 12.625 16.2937 9.99999C16.2937 7.38124 14.6812 5.13437 12.3875 4.19999C12.075 4.07187 11.875 3.76562 11.875 3.43437V3.30624C11.875 3.08749 12.0562 2.90624 12.275 2.90624C12.3219 2.90624 12.3625 2.91249 12.4031 2.92499C15.3656 3.91874 17.5 6.71249 17.5 9.99999Z" fill="white"/>
</g>
<defs>
<clipPath id="clip0_118_2986">
<rect width="20" height="20" fill="white"/>
</clipPath>
</defs>
</svg>
