<svg width="16" height="16" viewBox="0 0 16 16" fill="none" xmlns="http://www.w3.org/2000/svg">
<g clip-path="url(#clip0_98_559)">
<path d="M0 8C0 10.1217 0.842855 12.1566 2.34315 13.6569C3.84344 15.1571 5.87827 16 8 16C10.1217 16 12.1566 15.1571 13.6569 13.6569C15.1571 12.1566 16 10.1217 16 8C16 5.87827 15.1571 3.84344 13.6569 2.34315C12.1566 0.842855 10.1217 0 8 0C5.87827 0 3.84344 0.842855 2.34315 2.34315C0.842855 3.84344 0 5.87827 0 8Z" fill="#26A17B"/>
<path d="M11.072 6.14401V4.64001H4.96V6.14401H7.2V7.10401C5.376 7.20001 4 7.55201 4 7.96801C4 8.38401 5.376 8.76801 7.2 8.83201V11.968H8.8V8.83201C10.624 8.73601 12 8.38401 12 7.96801C12 7.55201 10.624 7.16801 8.8 7.10401V6.14401H11.072ZM11.328 7.90401C11.328 8.19201 10.272 8.41601 8.832 8.48001H7.2C5.76 8.41601 4.672 8.16001 4.672 7.90401C4.672 7.64801 5.76 7.39201 7.2 7.32801V8.22401C7.456 8.22401 7.712 8.25601 8 8.25601C8.288 8.25601 8.544 8.25601 8.8 8.22401V7.32801C10.24 7.39201 11.328 7.61601 11.328 7.90401Z" fill="white"/>
</g>
<defs>
<clipPath id="clip0_98_559">
<rect width="16" height="16" fill="white"/>
</clipPath>
</defs>
</svg>
